# xmcd
#
# Track frame offsets: 
#        150
#        19501
#        38102
#        52653
#        72754
#        85805
#        101856
#        120457
#        140858
#        159309
#        178810
#
# Disc length: 2596 seconds
#
# Revision: 0
# Processed by: cddbd v1.5.2PL0 Copyright (c) Steve Scherf et al.
# Submitted via: ExactAudioCopy v1.3
#
DISCID=8a0a220b
DTITLE=Racine - A peine un peu
DYEAR=1900
DGENRE=Blues
TTITLE0=A peine un peu
TTITLE1=J'ai faim mange moi
TTITLE2=The end of the stage
TTITLE3=Non assistance
TTITLE4=L'au-delà d'elle
TTITLE5=Marmotte blues
TTITLE6=Le bowling des jacobins
TTITLE7=Bill bitume
TTITLE8=Urban parano
TTITLE9=J'veux pas
TTITLE10=Simplement
EXTD=
EXTT0=
EXTT1=
EXTT2=
EXTT3=
EXTT4=
EXTT5=
EXTT6=
EXTT7=
EXTT8=
EXTT9=
EXTT10=
PLAYORDER=
